# xmcd CD database file
#
# Track frame offsets:
#	150
#	29027
#	50317
#	70350
#	99225
#	119565
#	144785
#	163850
#	179540
#	209440
#	223355
#
# Disc length: 3163 seconds
#
# Revision: 0
# Processed by: cddbd v1.4b42PL0 Copyright (c) Steve Scherf et al.
# Submitted via: Feurio! 1.61.6ß - http://www.feurio.com
#
DISCID=ac0c590b
DTITLE=Various Artist - Blues for a sunday morning
DYEAR=1900
DGENRE=
TTITLE0=Allen Toussaint and The Bluesiana Hot Sauce Band - You don´t know me
TTITLE1=Billy Vera - Room with a view
TTITLE2=The Syndicate Of Soul featuring Dr. John - Ain´t no sunshine
TTITLE3=Gil Parris - Last call
TTITLE4=Duke Robillard - I don´t want to say best wishes
TTITLE5=Sue Foley - Same thing
TTITLE6=Curtis Salgado - I want everyone to know
TTITLE7=Debbie Davies featuring Chris Layton and Tommy Shannon - Atras de tus 
TTITLE7=Ojos (Behind your eyes)
TTITLE8=Rufus Thomas and The Bluesiana Hurricane Band - The world is round
TTITLE9=Mem Shannon - A certain shade of blue
TTITLE10=Deanna Bogart - But you know
EXTD=The blues can fit many moods...of love lost and found. Here´s a set of 
EXTD=beautiful set of romantic blues by some of the finest artists 
EXTD=around-perfect for the morning after-or the night to come.\r\nWebsite: 
EXTD=www.shanachie.com
EXTT0=
EXTT1=
EXTT2=
EXTT3=
EXTT4=
EXTT5=
EXTT6=
EXTT7=
EXTT8=
EXTT9=
EXTT10=
PLAYORDER=
